<svg xmlns="http://www.w3.org/2000/svg" width="24" height="24" viewBox="0 0 24 24" fill="none"><path d="M20.52 3.48A11.92 11.92 0 0012 0C5.372 0 .03 5.342.03 12c0 2.116.556 4.18 1.61 6.01L0 24l6.18-1.61A11.92 11.92 0 0012 24c6.628 0 12-5.342 12-12 0-3.22-1.26-6.24-3.48-8.52z" fill="#25D366"/><path d="M17.6 14.2c-.28-.14-1.64-.8-1.9-.9-.26-.1-.45-.14-.64.14-.19.28-.74.9-.9 1.08-.16.19-.32.21-.6.07-.29-.14-1.22-.45-2.32-1.43-.86-.77-1.44-1.72-1.61-2-.17-.28-.02-.43.12-.57.12-.12.28-.32.42-.48.14-.16.18-.28.28-.46.09-.19.05-.35-.02-.49-.07-.14-.64-1.55-.88-2.12-.23-.55-.47-.47-.64-.48l-.55-.01c-.18 0-.47.07-.72.35-.25.28-.96.94-.96 2.3 0 1.37.98 2.7 1.12 2.88.13.19 1.95 3 4.73 4.18 3.32 1.43 3.32 0 3.92-1.22.26-.51.26-.95.18-1.04-.07-.09-.26-.14-.54-.28z" fill="#FFF"/></svg>
